<svg width="22" height="18" viewBox="0 0 20 27" fill="none" xmlns="http://www.w3.org/2000/svg">
<path d="M15.7857 1.81693C16.2972 1.81693 16.7878 1.99331 17.1495 2.30726C17.5111 2.62122 17.7143 3.04704 17.7143 3.49104V23.5803C17.7143 24.0243 17.5111 24.4501 17.1495 24.7641C16.7878 25.0781 16.2972 25.2544 15.7857 25.2544H4.21432C3.70283 25.2544 3.21229 25.0781 2.85062 24.7641C2.48894 24.4501 2.28575 24.0243 2.28575 23.5803V3.49104C2.28575 3.04704 2.48894 2.62122 2.85062 2.30726C3.21229 1.99331 3.70283 1.81693 4.21432 1.81693H15.7857ZM4.21432 0.142822C3.19134 0.142822 2.21026 0.49558 1.48691 1.12349C0.763554 1.7514 0.357178 2.60303 0.357178 3.49104V23.5803C0.357178 24.4683 0.763554 25.32 1.48691 25.9479C2.21026 26.5758 3.19134 26.9285 4.21432 26.9285H15.7857C16.8087 26.9285 17.7898 26.5758 18.5132 25.9479C19.2365 25.32 19.6429 24.4683 19.6429 23.5803V3.49104C19.6429 2.60303 19.2365 1.7514 18.5132 1.12349C17.7898 0.49558 16.8087 0.142822 15.7857 0.142822L4.21432 0.142822Z" fill="#27923E"/>
<path d="M10 23.1785C10.4973 23.1785 10.9742 22.9809 11.3258 22.6293C11.6775 22.2777 11.875 21.8007 11.875 21.3035C11.875 20.8062 11.6775 20.3293 11.3258 19.9776C10.9742 19.626 10.4973 19.4285 10 19.4285C9.50272 19.4285 9.02581 19.626 8.67418 19.9776C8.32254 20.3293 8.125 20.8062 8.125 21.3035C8.125 21.8007 8.32254 22.2777 8.67418 22.6293C9.02581 22.9809 9.50272 23.1785 10 23.1785Z" fill="#27923E"/>
</svg>
