<svg width="20" height="20" viewBox="0 0 20 20" fill="none" xmlns="http://www.w3.org/2000/svg">
<path fill-rule="evenodd" clip-rule="evenodd" d="M11.1751 10L16.4251 4.75834C16.7519 4.43157 16.7519 3.90177 16.4251 3.575C16.0983 3.24823 15.5685 3.24823 15.2418 3.575L10.0001 8.825L4.75845 3.575C4.43168 3.24823 3.90188 3.24823 3.57511 3.575C3.24834 3.90177 3.24834 4.43157 3.57511 4.75834L8.82511 10L3.57511 15.2417C3.41735 15.3981 3.32861 15.6111 3.32861 15.8333C3.32861 16.0555 3.41735 16.2685 3.57511 16.425C3.73158 16.5828 3.94458 16.6715 4.16678 16.6715C4.38898 16.6715 4.60197 16.5828 4.75845 16.425L10.0001 11.175L15.2418 16.425C15.3983 16.5828 15.6112 16.6715 15.8334 16.6715C16.0556 16.6715 16.2686 16.5828 16.4251 16.425C16.5829 16.2685 16.6716 16.0555 16.6716 15.8333C16.6716 15.6111 16.5829 15.3981 16.4251 15.2417L11.1751 10Z" />
</svg>
