<svg width="107" height="200" viewBox="0 0 107 200" fill="none" xmlns="http://www.w3.org/2000/svg">
<path d="M54.1498 0H53.2834V66.6667H54.1498V0Z" fill="url(#paint0_linear)"/>
<path d="M58.4818 71.3905C56.9656 70.949 55.3627 70.6841 53.7166 70.64C53.5866 70.64 53.4133 70.64 53.2834 70.64C51.8105 70.64 50.3376 70.8166 48.9514 71.1698C49.1247 68.6532 51.204 66.6665 53.7166 66.6665C55.0162 66.6665 56.2291 67.1963 57.0955 68.0793C57.9186 68.9623 58.4384 70.1102 58.4818 71.3905Z" fill="url(#paint1_linear)"/>
<path d="M71.7809 89.5365C70.3947 88.2561 68.4453 87.3731 65.5862 86.8433C62.7271 86.3135 58.8716 86.0928 53.7166 86.0928C48.5615 86.0928 44.6194 86.3135 41.587 86.8433C38.5546 87.3731 36.3886 88.212 34.8291 89.4923C34.7425 89.5806 34.6558 89.7131 34.6558 89.8455C34.6558 89.978 34.6991 90.1104 34.7858 90.1987C36.302 91.5232 38.8578 92.2296 42.1068 92.627C45.3558 93.0685 49.3412 93.1568 53.7166 93.1568C58.0919 93.1568 61.9473 92.9802 65.0663 92.5387C66.6259 92.3179 67.9688 92.0089 69.0951 91.6557C70.2214 91.2583 71.1311 90.7727 71.7809 90.1987C71.8676 90.1104 71.9109 89.978 71.9109 89.8897C71.9109 89.8014 71.8676 89.6248 71.7809 89.5365ZM71.1311 90.1104C68.5319 92.0972 62.034 92.7153 53.7166 92.7153C45.3125 92.7153 38.4246 92.3179 35.4356 90.1104C35.3056 90.0221 35.1757 89.9338 35.089 89.8455C35.219 89.7572 35.3056 89.6689 35.4356 89.5806C38.5113 87.3731 43.8396 86.5343 53.7166 86.5343C63.5935 86.5343 68.4886 87.329 71.1744 89.5365C71.3044 89.6248 71.391 89.7131 71.521 89.8455C71.391 89.9338 71.2611 90.0221 71.1311 90.1104Z" fill="#27923E"/>
<path d="M107 196.91L70.8993 86.0928L35.8846 86.321L0 196.91H107Z" fill="url(#paint2_linear)" fill-opacity="0.5"/>
<path d="M71.9109 89.6247V89.8454C71.9109 89.713 71.8676 89.6247 71.7809 89.5364C70.3947 88.256 68.4453 87.373 65.5862 86.8432C62.7271 86.3134 58.8716 86.0927 53.7166 86.0927C48.5615 86.0927 44.6194 86.3134 41.587 86.8432C38.5546 87.373 36.3886 88.2119 34.8291 89.4922C34.7425 89.5805 34.6558 89.713 34.6558 89.8454V89.6247C34.6558 80.6622 40.7639 73.1567 48.9514 71.1699C50.3376 70.8167 51.7672 70.6401 53.2834 70.6401C53.4133 70.6401 53.5866 70.6401 53.7166 70.6401C55.3627 70.6843 56.9655 70.9492 58.4817 71.3907C61.5574 72.2737 64.2866 73.9514 66.4526 76.203C69.8315 79.6468 71.9109 84.3708 71.9109 89.6247Z" fill="url(#paint3_linear)"/>
<path fill-rule="evenodd" clip-rule="evenodd" d="M71.4777 89.8454C71.3911 89.9337 71.2611 90.022 71.1312 90.1103C68.532 92.0971 62.034 92.7152 53.7166 92.7152C45.3125 92.7152 38.4247 92.3178 35.4356 90.1103C35.3056 90.022 35.1757 89.9337 35.0891 89.8454C35.219 89.7571 35.3056 89.6688 35.4356 89.5805C38.5113 87.373 43.8397 86.5342 53.7166 86.5342C63.5935 86.5342 68.4886 87.3289 71.1745 89.5364C71.2611 89.6688 71.3911 89.7571 71.4777 89.8454Z" fill="#B9DCC1" fill-opacity="0.3"/>
<defs>
<linearGradient id="paint0_linear" x1="53.7166" y1="0" x2="53.7166" y2="66.6667" gradientUnits="userSpaceOnUse">
<stop offset="0.104167" stop-color="#A2A7B4" stop-opacity="0"/>
<stop offset="1" stop-color="#125220"/>
</linearGradient>
<linearGradient id="paint1_linear" x1="53.7166" y1="66.6665" x2="53.7166" y2="71.3362" gradientUnits="userSpaceOnUse">
<stop stop-color="#27923E"/>
<stop offset="1" stop-color="#125220"/>
</linearGradient>
<linearGradient id="paint2_linear" x1="53.2834" y1="3.09059" x2="53.5084" y2="200" gradientUnits="userSpaceOnUse">
<stop stop-color="#B9DCC1"/>
<stop offset="1" stop-color="#B9DCC1" stop-opacity="0"/>
</linearGradient>
<linearGradient id="paint3_linear" x1="53.2834" y1="70.6401" x2="53.2834" y2="89.6247" gradientUnits="userSpaceOnUse">
<stop stop-color="#27923E"/>
<stop offset="1" stop-color="#125220"/>
</linearGradient>
</defs>
</svg>
