<svg width="8" height="25" viewBox="0 0 8 25" fill="none" xmlns="http://www.w3.org/2000/svg">
<path d="M7.09347 21.3257C7.09347 23.0252 5.73397 24.4186 4.00059 24.4186C2.26721 24.4186 0.907715 23.0252 0.907715 21.3257C0.907715 19.6263 2.26721 18.2329 4.00059 18.2329C5.73397 18.2329 7.09347 19.6264 7.09347 21.3257ZM5.41797 15.14H2.5509C2.1259 15.14 1.77603 14.8058 1.75665 14.3813L1.14971 1.11897C1.12896 0.666037 1.49059 0.287537 1.94396 0.287537H6.05528C6.5094 0.287537 6.87128 0.667224 6.84947 1.12079L6.21215 14.3831C6.19184 14.8069 5.84228 15.14 5.41797 15.14Z" fill="#E02020"/>
</svg>
