<svg width="15" height="14" viewBox="0 0 15 14" fill="none" xmlns="http://www.w3.org/2000/svg">
<path fill-rule="evenodd" clip-rule="evenodd" d="M1.8501 6.99998C1.8501 4.16498 4.0601 1.34998 7.5001 1.34998C10.2781 1.34998 11.6521 3.40598 12.2371 4.49998H10.5001C10.3675 4.49998 10.2403 4.55265 10.1465 4.64642C10.0528 4.74019 10.0001 4.86737 10.0001 4.99998C10.0001 5.13258 10.0528 5.25976 10.1465 5.35353C10.2403 5.4473 10.3675 5.49998 10.5001 5.49998H13.5001C13.6327 5.49998 13.7599 5.4473 13.8537 5.35353C13.9474 5.25976 14.0001 5.13258 14.0001 4.99998V1.99998C14.0001 1.86737 13.9474 1.74019 13.8537 1.64642C13.7599 1.55265 13.6327 1.49998 13.5001 1.49998C13.3675 1.49998 13.2403 1.55265 13.1465 1.64642C13.0528 1.74019 13.0001 1.86737 13.0001 1.99998V3.81298C12.2961 2.57098 10.6661 0.349976 7.5001 0.349976C3.4371 0.349976 0.850098 3.68498 0.850098 6.99998C0.850098 10.315 3.4371 13.65 7.5001 13.65C9.4441 13.65 11.0621 12.88 12.2141 11.708C12.8254 11.0845 13.3103 10.3486 13.6421 9.54098C13.667 9.48024 13.6798 9.41518 13.6796 9.34952C13.6794 9.28386 13.6663 9.21888 13.641 9.15829C13.6157 9.0977 13.5787 9.04268 13.5321 8.99639C13.4856 8.9501 13.4303 8.91343 13.3696 8.88848C13.3089 8.86352 13.2438 8.85078 13.1781 8.85097C13.1125 8.85116 13.0475 8.86428 12.9869 8.88959C12.9263 8.91489 12.8713 8.95188 12.825 8.99845C12.7787 9.04501 12.742 9.10024 12.7171 9.16098C12.4345 9.84893 12.0216 10.4758 11.5011 11.007C10.5301 11.997 9.1651 12.65 7.5001 12.65C4.0601 12.65 1.8501 9.83498 1.8501 6.99998Z" fill="black" stroke="black" stroke-width="0.2"/>
</svg>
