<svg viewBox="0 0 498 325" fill="none" xmlns="http://www.w3.org/2000/svg">
<g style="mix-blend-mode:overlay" clip-path="url(#clip0)">
<g style="mix-blend-mode:color">
<path d="M165.491 86.2144L81.063 63.5286C60.0487 57.8821 38.4485 70.3879 32.8178 91.461L10.1953 176.125C4.56454 197.199 17.0354 218.859 38.0497 224.506L122.478 247.191C143.492 252.838 165.092 240.332 170.723 219.259L193.346 134.595C198.976 113.522 186.505 91.8609 165.491 86.2144Z" fill="#525A6E"/>
</g>
<g style="mix-blend-mode:multiply">
<path d="M168.896 -63.4798L132.648 72.1817C120.913 116.1 146.903 161.242 190.698 173.009L339.957 213.115C383.752 224.883 428.768 198.82 440.503 154.902L476.752 19.2408C488.487 -24.677 462.497 -69.8191 418.702 -81.5868L269.443 -121.693C225.647 -133.46 180.631 -107.398 168.896 -63.4798Z" fill="#27923E"/>
</g>
<g style="mix-blend-mode:multiply">
<path d="M236.268 106.176L151.84 83.4906C130.826 77.844 109.225 90.3498 103.595 111.423L80.9722 196.087C75.3414 217.16 87.8122 238.821 108.827 244.468L193.255 267.153C214.269 272.8 235.869 260.294 241.5 239.221L264.122 154.557C269.753 133.483 257.282 111.823 236.268 106.176Z" fill="#525A6E"/>
</g>
<g style="mix-blend-mode:overlay">
<path d="M334.201 242.893L302.622 234.408C290.374 231.117 277.783 238.406 274.501 250.689L266.04 282.356C262.758 294.639 270.027 307.264 282.276 310.556L313.854 319.041C326.103 322.332 338.693 315.043 341.975 302.76L350.436 271.093C353.718 258.81 346.45 246.185 334.201 242.893Z" fill="#525A6E"/>
</g>
</g>
<defs>
<clipPath id="clip0">
<rect width="498" height="468" fill="white" transform="translate(0 -143)"/>
</clipPath>
</defs>
</svg>
