<svg width="22" height="18" viewBox="0 0 22 22" fill="none" xmlns="http://www.w3.org/2000/svg">
<path d="M1.78546 6.6805H5.809C6.03039 6.6805 6.24272 6.59255 6.39926 6.436C6.55581 6.27946 6.64376 6.06713 6.64376 5.84574C6.64376 5.62435 6.55581 5.41202 6.39926 5.25548C6.24272 5.09893 6.03039 5.01098 5.809 5.01098H3.30473C4.47473 3.45169 6.15358 2.35107 8.05011 1.89998C9.94664 1.44889 11.9412 1.6758 13.688 2.54134C15.4347 3.40689 16.8235 4.85648 17.6133 6.63873C18.4032 8.42097 18.5444 10.4235 18.0125 12.2989C17.4805 14.1744 16.3089 15.8045 14.7009 16.9066C13.0929 18.0087 11.1499 18.5132 9.20881 18.3327C7.26774 18.1522 5.45106 17.2981 4.07382 15.9184C2.69658 14.5387 1.84565 12.7205 1.6686 10.7792C1.66332 10.6666 1.63531 10.5563 1.58626 10.4549C1.53721 10.3535 1.46814 10.263 1.3832 10.189C1.29827 10.115 1.19923 10.0589 1.09205 10.0242C0.984867 9.98945 0.871766 9.97678 0.759559 9.98693C0.647352 9.99708 0.538361 10.0298 0.439151 10.0832C0.339942 10.1366 0.252568 10.2095 0.182293 10.2976C0.112018 10.3857 0.0602959 10.487 0.0302439 10.5956C0.000191907 10.7042 -0.00756853 10.8178 0.00743005 10.9294C0.217379 13.2251 1.2127 15.3781 2.82548 17.0252C4.43827 18.6724 6.56982 19.7129 8.86055 19.9711C11.1513 20.2294 13.461 19.6897 15.4001 18.4431C17.3391 17.1964 18.7889 15.3191 19.5048 13.1278C20.2206 10.9365 20.1588 8.56539 19.3297 6.4144C18.5006 4.26341 16.955 2.46421 14.9536 1.3203C12.9522 0.17639 10.6175 -0.242209 8.3433 0.135114C6.06914 0.512438 3.99472 1.66259 2.46997 3.39155V1.67195C2.46997 1.45056 2.38202 1.23823 2.22547 1.08169C2.06892 0.925138 1.8566 0.837191 1.63521 0.837191C1.41382 0.837191 1.20149 0.925138 1.04495 1.08169C0.888398 1.23823 0.80045 1.45056 0.80045 1.67195V5.84574C0.80045 6.06713 0.888398 6.27946 1.04495 6.436C1.20149 6.59255 1.41382 6.6805 1.63521 6.6805H1.78546ZM9.14803 5.01098C9.36942 5.01098 9.58175 5.09893 9.7383 5.25548C9.89484 5.41202 9.98279 5.62435 9.98279 5.84574V10.0195H12.4871C12.7085 10.0195 12.9208 10.1075 13.0773 10.264C13.2339 10.4206 13.3218 10.6329 13.3218 10.8543C13.3218 11.0757 13.2339 11.288 13.0773 11.4446C12.9208 11.6011 12.7085 11.689 12.4871 11.689H9.14803C8.92664 11.689 8.71432 11.6011 8.55777 11.4446C8.40122 11.288 8.31327 11.0757 8.31327 10.8543V5.84574C8.31327 5.62435 8.40122 5.41202 8.55777 5.25548C8.71432 5.09893 8.92664 5.01098 9.14803 5.01098Z"/>
</svg>
