<svg width="200" height="200" viewBox="0 0 200 200" fill="none" xmlns="http://www.w3.org/2000/svg">
<g clip-path="url(#clip0)">
<rect x="26.5957" y="20.2129" width="160" height="160" rx="8" fill="#E6EFEB"/>
<g filter="url(#filter0_d)">
<rect y="34.9785" width="154" height="36" rx="4" fill="white"/>
<circle cx="18.0475" cy="53" r="9" fill="#27923E"/>
<path d="M18 50C18.8287 50 19.5 50.6712 19.5 51.5C19.5 52.3288 18.8287 53 18 53C17.1712 53 16.5 52.3288 16.5 51.5C16.5 50.6712 17.1712 50 18 50ZM18 56C18 56 21 56 21 55.25C21 54.35 19.5375 53.375 18 53.375C16.4625 53.375 15 54.35 15 55.25C15 56 18 56 18 56Z" fill="#F4F8F9"/>
<circle cx="33.1267" cy="53" r="9.75" fill="#27923E" stroke="white" stroke-width="1.5"/>
<path d="M33 50C33.8288 50 34.5 50.6712 34.5 51.5C34.5 52.3288 33.8288 53 33 53C32.1712 53 31.5 52.3288 31.5 51.5C31.5 50.6712 32.1712 50 33 50ZM33 56C33 56 36 56 36 55.25C36 54.35 34.5375 53.375 33 53.375C31.4625 53.375 30 54.35 30 55.25C30 56 33 56 33 56Z" fill="#F4F8F9"/>
<path d="M51.1736 47.3508C51.1736 45.7488 52.4722 44.4502 54.0742 44.4502H96.5263C98.1283 44.4502 99.4269 45.7488 99.4269 47.3508C99.4269 48.9527 98.1283 50.2513 96.5263 50.2513H54.0742C52.4722 50.2513 51.1736 48.9527 51.1736 47.3508Z" fill="#C5D9D2"/>
<path d="M51.1736 58.9533C51.1736 57.3514 52.4722 56.0527 54.0742 56.0527H122.664C124.266 56.0527 125.564 57.3514 125.564 58.9533C125.564 60.5552 124.266 61.8539 122.664 61.8539H54.0742C52.4722 61.8539 51.1736 60.5552 51.1736 58.9533Z" fill="#F2F7F8"/>
</g>
<g filter="url(#filter1_d)">
<rect x="47" y="80.9785" width="153.191" height="37.234" rx="4" fill="#27923E"/>
<ellipse cx="64.9528" cy="99.6176" rx="8.95275" ry="9.30851" fill="#DFEBE6"/>
<path d="M64.9055 96.5146C65.7299 96.5146 66.3976 97.2089 66.3976 98.0661C66.3976 98.9232 65.7299 99.6175 64.9055 99.6175C64.0811 99.6175 63.4134 98.9232 63.4134 98.0661C63.4134 97.2089 64.0811 96.5146 64.9055 96.5146ZM64.9055 102.72C64.9055 102.72 67.8898 102.72 67.8898 101.945C67.8898 101.014 66.4349 100.005 64.9055 100.005C63.3761 100.005 61.9213 101.014 61.9213 101.945C61.9213 102.72 64.9055 102.72 64.9055 102.72Z" fill="#27923E"/>
<path d="M79.9528 109.676C85.3387 109.676 89.6555 105.145 89.6555 99.6176C89.6555 94.0902 85.3387 89.5591 79.9528 89.5591C74.5668 89.5591 70.25 94.0902 70.25 99.6176C70.25 105.145 74.5668 109.676 79.9528 109.676Z" fill="#DFEBE6" stroke="#27923E" stroke-width="1.5"/>
<path d="M79.8268 96.5146C80.6512 96.5146 81.3189 97.2089 81.3189 98.0661C81.3189 98.9232 80.6512 99.6175 79.8268 99.6175C79.0024 99.6175 78.3347 98.9232 78.3347 98.0661C78.3347 97.2089 79.0024 96.5146 79.8268 96.5146ZM79.8268 102.72C79.8268 102.72 82.811 102.72 82.811 101.945C82.811 101.014 81.3562 100.005 79.8268 100.005C78.2974 100.005 76.8425 101.014 76.8425 101.945C76.8425 102.72 79.8268 102.72 79.8268 102.72Z" fill="#27923E"/>
<path d="M97.9049 93.7749C97.9049 92.118 99.2481 90.7749 100.905 90.7749H142.905C144.562 90.7749 145.905 92.118 145.905 93.7749C145.905 95.4318 144.562 96.7749 142.905 96.7749H100.905C99.2481 96.7749 97.9049 95.4318 97.9049 93.7749Z" fill="#C5D9D2"/>
<path d="M97.9049 105.775C97.9049 104.118 99.2481 102.775 100.905 102.775H168.905C170.562 102.775 171.905 104.118 171.905 105.775C171.905 107.432 170.562 108.775 168.905 108.775H100.905C99.2481 108.775 97.9049 107.432 97.9049 105.775Z" fill="#F2F7F8"/>
</g>
<g filter="url(#filter2_d)">
<rect y="128.213" width="153.191" height="37.234" rx="4" fill="white"/>
<ellipse cx="17.9527" cy="146.852" rx="8.95275" ry="9.30851" fill="#27923E"/>
<path d="M17.9055 143.749C18.7299 143.749 19.3976 144.443 19.3976 145.3C19.3976 146.158 18.7299 146.852 17.9055 146.852C17.0811 146.852 16.4134 146.158 16.4134 145.3C16.4134 144.443 17.0811 143.749 17.9055 143.749ZM17.9055 149.955C17.9055 149.955 20.8898 149.955 20.8898 149.179C20.8898 148.248 19.4349 147.24 17.9055 147.24C16.3761 147.24 14.9213 148.248 14.9213 149.179C14.9213 149.955 17.9055 149.955 17.9055 149.955Z" fill="#F4F8F9"/>
<path d="M32.9528 156.91C38.3387 156.91 42.6555 152.379 42.6555 146.852C42.6555 141.325 38.3387 136.793 32.9528 136.793C27.5668 136.793 23.25 141.325 23.25 146.852C23.25 152.379 27.5668 156.91 32.9528 156.91Z" fill="#27923E" stroke="white" stroke-width="1.5"/>
<path d="M32.8268 143.749C33.6512 143.749 34.3189 144.443 34.3189 145.3C34.3189 146.158 33.6512 146.852 32.8268 146.852C32.0024 146.852 31.3347 146.158 31.3347 145.3C31.3347 144.443 32.0024 143.749 32.8268 143.749ZM32.8268 149.955C32.8268 149.955 35.811 149.955 35.811 149.179C35.811 148.248 34.3562 147.24 32.8268 147.24C31.2974 147.24 29.8425 148.248 29.8425 149.179C29.8425 149.955 32.8268 149.955 32.8268 149.955Z" fill="#F4F8F9"/>
<path d="M50.9049 141.009C50.9049 139.352 52.2481 138.009 53.9049 138.009H95.9049C97.5618 138.009 98.9049 139.352 98.9049 141.009C98.9049 142.666 97.5618 144.009 95.9049 144.009H53.9049C52.2481 144.009 50.9049 142.666 50.9049 141.009Z" fill="#C5D9D2"/>
<path d="M50.9049 153.009C50.9049 151.352 52.2481 150.009 53.9049 150.009H121.905C123.562 150.009 124.905 151.352 124.905 153.009C124.905 154.666 123.562 156.009 121.905 156.009H53.9049C52.2481 156.009 50.9049 154.666 50.9049 153.009Z" fill="#F2F7F8"/>
</g>
</g>
<defs>
<filter id="filter0_d" x="-4" y="34.9785" width="162" height="44" filterUnits="userSpaceOnUse" color-interpolation-filters="sRGB">
<feFlood flood-opacity="0" result="BackgroundImageFix"/>
<feColorMatrix in="SourceAlpha" type="matrix" values="0 0 0 0 0 0 0 0 0 0 0 0 0 0 0 0 0 0 127 0" result="hardAlpha"/>
<feOffset dy="4"/>
<feGaussianBlur stdDeviation="2"/>
<feColorMatrix type="matrix" values="0 0 0 0 0.0196078 0 0 0 0 0.345098 0 0 0 0 0.25098 0 0 0 0.04 0"/>
<feBlend mode="normal" in2="BackgroundImageFix" result="effect1_dropShadow"/>
<feBlend mode="normal" in="SourceGraphic" in2="effect1_dropShadow" result="shape"/>
</filter>
<filter id="filter1_d" x="43" y="80.9785" width="161.191" height="45.234" filterUnits="userSpaceOnUse" color-interpolation-filters="sRGB">
<feFlood flood-opacity="0" result="BackgroundImageFix"/>
<feColorMatrix in="SourceAlpha" type="matrix" values="0 0 0 0 0 0 0 0 0 0 0 0 0 0 0 0 0 0 127 0" result="hardAlpha"/>
<feOffset dy="4"/>
<feGaussianBlur stdDeviation="2"/>
<feColorMatrix type="matrix" values="0 0 0 0 0.0196078 0 0 0 0 0.345098 0 0 0 0 0.25098 0 0 0 0.04 0"/>
<feBlend mode="normal" in2="BackgroundImageFix" result="effect1_dropShadow"/>
<feBlend mode="normal" in="SourceGraphic" in2="effect1_dropShadow" result="shape"/>
</filter>
<filter id="filter2_d" x="-4" y="128.213" width="161.191" height="45.234" filterUnits="userSpaceOnUse" color-interpolation-filters="sRGB">
<feFlood flood-opacity="0" result="BackgroundImageFix"/>
<feColorMatrix in="SourceAlpha" type="matrix" values="0 0 0 0 0 0 0 0 0 0 0 0 0 0 0 0 0 0 127 0" result="hardAlpha"/>
<feOffset dy="4"/>
<feGaussianBlur stdDeviation="2"/>
<feColorMatrix type="matrix" values="0 0 0 0 0.0196078 0 0 0 0 0.345098 0 0 0 0 0.25098 0 0 0 0.04 0"/>
<feBlend mode="normal" in2="BackgroundImageFix" result="effect1_dropShadow"/>
<feBlend mode="normal" in="SourceGraphic" in2="effect1_dropShadow" result="shape"/>
</filter>
<clipPath id="clip0">
<rect width="200" height="200" fill="white"/>
</clipPath>
</defs>
</svg>
